<?xml version="1.0" encoding="utf-8"?>
<!-- Generator: Adobe Illustrator 25.0.1, SVG Export Plug-In . SVG Version: 6.00 Build 0)  -->
<svg version="1.1" id="Main" xmlns="http://www.w3.org/2000/svg" xmlns:xlink="http://www.w3.org/1999/xlink" x="0px" y="0px"
	 viewBox="0 0 512 512" style="enable-background:new 0 0 512 512;" xml:space="preserve">
<path id="Logo" d="M255.8,382.02c-16.98,0-32.48-2.29-46.48-6.87c-14.01-4.58-26.07-11.58-36.18-21.02
	c-10.11-9.43-17.92-21.28-23.44-35.57c-5.53-14.28-8.29-31.12-8.29-50.53V97.05h43.25v170.98c0,24.52,6.4,43.39,19.2,56.59
	c12.79,13.21,30.11,19.81,51.94,19.81c21.83,0,39.21-6.6,52.14-19.81c12.94-13.2,19.4-32.06,19.4-56.59V97.05h43.25v170.98
	c0,19.4-2.77,36.25-8.29,50.53c-5.53,14.29-13.34,26.14-23.44,35.57c-10.11,9.44-22.23,16.44-36.38,21.02
	C288.34,379.73,272.78,382.02,255.8,382.02z"/>
</svg>
